<svg width="208" height="136" viewBox="0 0 208 136" fill="none" xmlns="http://www.w3.org/2000/svg">
<path d="M69.3333 90.6666H80.8889V102H69.3333V90.6666Z" fill="white"/>
<path d="M127.111 90.6666H138.667V102H127.111V90.6666Z" fill="white"/>
<path d="M23.1111 45.3333H34.6667V56.6667H23.1111V45.3333Z" fill="white"/>
<path d="M69.3333 90.6666H80.8889V102H69.3333V90.6666Z" fill="white"/>
<path d="M11.5556 11.3333H23.1111V22.6667H11.5556V11.3333Z" fill="white"/>
<path d="M184.889 11.3333H196.444V22.6667H184.889V11.3333Z" fill="white"/>
<path d="M127.111 90.6666H138.667V102H127.111V90.6666Z" fill="white"/>
<path d="M161.778 56.6667H173.333V68H161.778V56.6667Z" fill="white"/>
<path d="M173.333 45.3333H184.889V56.6667H173.333V45.3333Z" fill="white"/>
<path d="M184.889 113.333H196.444V124.667H184.889V113.333Z" fill="white"/>
<path d="M11.5556 113.333H23.1111V124.667H11.5556V113.333Z" fill="white"/>
<path d="M34.6667 34H46.2222V45.3333H34.6667V34Z" fill="white"/>
<path d="M46.2222 45.3333H57.7778V56.6667H46.2222V45.3333Z" fill="white"/>
<path d="M34.6667 56.6667H46.2222V68H34.6667V56.6667Z" fill="white"/>
<path d="M150.222 45.3334H161.778L161.778 56.6667L150.222 56.6667V45.3334Z" fill="white"/>
<path d="M161.778 34H173.333L173.333 45.3333L161.778 45.3334L161.778 34Z" fill="white"/>
<path d="M80.8889 79.3333V90.6666H127.111L127.111 79.3333H80.8889Z" fill="white"/>
<path d="M57.7777 124.667L69.3334 124.667L69.3333 102L57.7778 102L57.7777 124.667Z" fill="white"/>
<path d="M57.7777 136V124.667L23.1111 124.667V136L57.7777 136Z" fill="white"/>
<path d="M11.5556 22.6667H0V113.333H11.5556V22.6667Z" fill="white"/>
<path d="M23.1111 0V11.3333H69.3333V0H23.1111Z" fill="white"/>
<path d="M138.667 22.6667V11.3333H69.3333V22.6667H138.667Z" fill="white"/>
<path d="M184.889 11.3333V0H138.667V11.3333H184.889Z" fill="white"/>
<path d="M208 22.6667H196.444V113.333H208V22.6667Z" fill="white"/>
<path d="M150.222 124.667L150.222 136L184.889 136V124.667L150.222 124.667Z" fill="white"/>
<path d="M138.667 124.667H150.222V102L138.667 102L138.667 124.667Z" fill="white"/>
</svg>
