<?xml version="1.0" encoding="UTF-8"?>
<svg id="_Слой_2" data-name="Слой 2" xmlns="http://www.w3.org/2000/svg" viewBox="0 0 302.15 88.04">
  <defs>
    <style>
      .cls-1 {
        fill: #fff;
      }
    </style>
  </defs>
  <g id="_Слой_1-2" data-name="Слой 1">
    <g>
      <path class="cls-1" d="M78.3,83.95v4.09h-19.85v-28.61h6.62v24.52h13.23Z"/>
      <path class="cls-1" d="M82.71,83.95v-20.43h4.41v-4.09h15.44v4.09h4.41v20.43h-4.41v4.09h-15.44v-4.09h-4.41Zm6.62,0h11.03v-20.43h-11.03v20.43Z"/>
      <path class="cls-1" d="M111.38,88.04v-20.43h4.41v-4.09h4.41v-4.09h6.62v4.09h4.41v4.09h4.41v20.43h-6.62v-8.17h-11.03v8.17h-6.62Zm6.62-12.26h11.03v-8.17h-4.41v-4.09h-2.21v4.09h-4.41v8.17Z"/>
      <path class="cls-1" d="M159.9,67.6h4.41v12.26h-4.41v4.09h-4.41v4.09h-15.44v-28.61h15.44v4.09h4.41v4.09Zm-2.21,0h-4.41v-4.09h-6.62v20.43h6.62v-4.09h4.41v-12.26Z"/>
      <path class="cls-1" d="M166.51,88.04v-4.09h4.41v-20.43h-4.41v-4.09h15.44v4.09h-4.41v20.43h4.41v4.09h-15.44Z"/>
      <path class="cls-1" d="M208.42,59.43h6.62v28.61h-6.62v-8.17h-4.41v-4.09h-4.41v-4.09h-4.41v-4.09h-2.21v20.43h-6.62v-28.61h6.62v4.09h4.41v4.09h4.41v4.09h4.41v4.09h2.21v-16.35Z"/>
      <path class="cls-1" d="M219.44,63.52h4.41v-4.09h15.44v4.09h4.41v4.09h-6.62v-4.09h-11.03v20.43h11.03v-8.17h-8.82v-4.09h15.44v12.26h-4.41v4.09h-15.44v-4.09h-4.41v-20.43Z"/>
    </g>
    <g>
      <path class="cls-1" d="M302.15,49.43H0V0H302.15V49.43ZM5,44.43H297.15V5H5V44.43Z"/>
      <g>
        <rect class="cls-1" x="32.12" y="10.59" width="18.61" height="28.24"/>
        <rect class="cls-1" x="10.59" y="10.59" width="18.61" height="28.24"/>
        <rect class="cls-1" x="139.76" y="10.59" width="18.61" height="28.24"/>
        <rect class="cls-1" x="96.7" y="10.59" width="18.61" height="28.24"/>
        <rect class="cls-1" x="75.17" y="10.59" width="18.61" height="28.24"/>
        <rect class="cls-1" x="53.65" y="10.59" width="18.61" height="28.24"/>
        <rect class="cls-1" x="118.23" y="10.59" width="18.61" height="28.24"/>
      </g>
    </g>
  </g>
</svg>