<svg width="150" height="193" viewBox="0 0 150 193" fill="none" xmlns="http://www.w3.org/2000/svg">
<path d="M103.977 32.4052H92.49V21.7241H103.977V32.4052Z" fill="white"/>
<path d="M138.439 181.94H126.952V171.259H138.439V181.94Z" fill="white"/>
<path d="M46.5413 181.94H35.0541V171.259H46.5413V181.94Z" fill="white"/>
<path d="M46.5413 64.4483H35.0541V53.7672H46.5413V64.4483Z" fill="white"/>
<path d="M138.439 64.4483H126.952V53.7672H138.439V64.4483Z" fill="white"/>
<path d="M23.5669 43.0862H12.0798V32.4052H23.5669V43.0862Z" fill="white"/>
<path d="M138.439 107.172V96.4914V64.4483H149.926V171.259H138.439V107.172Z" fill="white"/>
<path d="M23.5669 32.4052V21.7241H46.5413V32.4052H23.5669Z" fill="white"/>
<path d="M115.464 21.7241H103.977V0.362061H115.464V21.7241Z" fill="white"/>
<path d="M35.0541 171.259H23.5669V64.4483H35.0541V96.4914H81.0028V53.7672H46.5413V43.0862H81.0028V32.4052H92.49V43.0862H126.952V53.7672H92.49V96.4914H138.439V107.172H35.0541V171.259Z" fill="white"/>
<path d="M0.592575 43.0862H12.0798V64.4483H0.592575V43.0862Z" fill="white"/>
<path d="M126.952 181.94V192.621H46.5413V181.94H126.952Z" fill="white"/>
</svg>
