<svg width="571" height="22" viewBox="0 0 571 22" fill="none" xmlns="http://www.w3.org/2000/svg">
<path d="M1 12.2117C38.9749 2.47122 74.3984 2.60957 114.064 2.60957C173.798 2.60957 233.465 3.92547 293.188 4.50628C351.808 5.07637 410.411 4.36524 469.023 3.67651C501.1 3.29959 534.688 -0.429003 566.693 1.60191C583.046 2.6396 534.277 5.68801 517.97 7.11431C460.268 12.1614 402.026 14.3588 344.003 15.1754C296.879 15.8385 249.749 16.4794 202.617 16.4794C185.022 16.4794 167.445 16.5147 149.859 17.0128C142.427 17.2233 132.867 16.4513 125.572 18.139C125.444 18.1686 147.301 20.4036 151.353 20.5099C183.027 21.3404 214.874 20.9131 246.557 20.6877C279.804 20.4512 313.161 20.2358 346.394 19.443C358.564 19.1527 394.694 20.0587 382.861 17.7834C370.836 15.4709 355.063 17.687 342.882 18.0797C319.827 18.8231 295.71 19.9849 272.712 18.0205C227.241 14.1363 364.182 17.1645 409.913 17.5463" stroke="#7D23F0" stroke-width="2" stroke-linecap="round"/>
</svg>
