<svg width="167" height="189" viewBox="0 0 167 189" fill="none" xmlns="http://www.w3.org/2000/svg">
<path d="M95.191 0V11.8125H71.4768V0H95.191Z" fill="#F7F6F6"/>
<path d="M59.6196 23.625V11.8125H71.4768V23.625H59.6196Z" fill="#F7F6F6"/>
<path d="M47.7625 35.4375V23.625H59.6196V35.4375H47.7625Z" fill="#F7F6F6"/>
<path fill-rule="evenodd" clip-rule="evenodd" d="M118.905 35.4375V129.938H47.7625V35.4375H35.9053V94.5H24.0482V106.312H12.1911V118.125H0.333908V153.562H12.1911V165.375H24.0482V153.562H35.9053V141.75H47.7625V165.375H59.6196V177.188H71.4768V189H95.191V177.188H107.048V165.375H118.905V141.75H130.762V153.562H142.62V165.375H154.477V153.562H166.334V118.125H154.477V106.312H142.62V94.5H130.762V35.4375H118.905ZM142.62 106.312V118.125H154.477V153.562H142.62V141.75H130.762V106.312H142.62ZM107.048 165.375H95.191V177.188H71.4768V165.375H59.6196V141.75H107.048V165.375ZM35.9053 141.75H24.0482V153.562H12.1911V118.125H24.0482V106.312H35.9053V141.75Z" fill="#F7F6F6"/>
<path d="M107.048 23.625H118.905V35.4375H107.048V23.625Z" fill="#F7F6F6"/>
<path d="M107.048 23.625V11.8125H95.191V23.625H107.048Z" fill="#F7F6F6"/>
<path d="M71.4768 47.25V70.875H59.6196V47.25H71.4768Z" fill="#F7F6F6"/>
<path d="M95.191 47.25H71.4768V35.4375H95.191V47.25Z" fill="#F7F6F6"/>
<path d="M95.191 70.875V47.25H107.048V70.875H95.191Z" fill="#F7F6F6"/>
<path d="M95.191 70.875H71.4768V82.6875H95.191V70.875Z" fill="#F7F6F6"/>
</svg>
