<?xml version="1.0" encoding="UTF-8"?>
<svg id="_Слой_2" data-name="Слой 2" xmlns="http://www.w3.org/2000/svg" viewBox="0 0 842.5 126.46">
  <defs>
    <style>
      .cls-1 {
        fill: #fff;
      }
    </style>
  </defs>
  <g id="_Слой_1-2" data-name="Слой 1">
    <g>
      <path class="cls-1" d="M721.67,4.18h44.5c3.63,33.94,7.25,67.84,10.89,101.89h9.79c3.67-33.91,7.34-67.8,11.02-101.82h44.65V122.26h-18.34V20.23h-9.79c-.61,4.95-1.22,9.88-1.82,14.81-2.97,24.82-5.94,49.63-8.91,74.45-.43,3.63-.84,7.26-1.25,10.89-.13,1.11-.23,2.08-1.82,2.07-12.9-.04-25.8-.02-39.03-.02-3.96-34.21-7.91-68.31-11.88-102.56h-10.05V122.22h-17.95V4.18Z"/>
      <path class="cls-1" d="M407.78,106.63V4.24h17.94V122.2h-47.42c-3.71-33.99-7.42-67.95-11.14-102.02h-12.62V122.25h-18.52V4.26h47.24c.46,3.76,.96,7.59,1.4,11.43,2.48,21.61,4.95,43.22,7.42,64.83,.91,8,1.84,16,2.65,24.01,.16,1.57,.65,2.17,2.27,2.12,3.48-.1,6.96-.03,10.78-.03Z"/>
      <path class="cls-1" d="M520.16,81.74v40.58h-17.29V4.28h17.35V44.68c31.08-14.07,61.79-27.98,92.76-42,.1,.89,.22,1.5,.23,2.11,.02,5.15-.07,10.3,.05,15.45,.04,1.72-.62,2.47-2.1,3.14-19.93,9-39.83,18.06-59.74,27.11-8.56,3.89-17.11,7.77-25.66,11.67-.51,.23-.99,.55-1.84,1.03,4.75,2.16,9.17,4.19,13.6,6.2,24.62,11.14,49.25,22.27,73.85,33.45,.75,.34,1.74,1.29,1.75,1.97,.14,6.05,.08,12.11,.08,18.76-31.12-14-61.89-27.83-93.03-41.84Z"/>
      <path class="cls-1" d="M321.39,4.29V122.22h-17.36v-54.1h-69.71v54.18h-17.36V4.29h17.26V50.29h69.71V4.29h17.47Z"/>
      <path class="cls-1" d="M628.44,122.21V4.2h17.1V104.79h43.31V4.26h17.36V122.21h-77.76Z"/>
      <path class="cls-1" d="M30.59,21.54H0V4.24H78.7V21.41h-30.69V122.29H30.59V21.54Z"/>
      <path class="cls-1" d="M487.5,122.31h-47.7v-16.41h15.23V21.66h-15.22V4.23h47.54V21.47h-15.01V105.77h15.15v16.53Z"/>
      <path class="cls-1" d="M205.41,63.23c0-4.05-.38-8.01-1.12-11.84C198.76,22.13,173.05,0,142.18,0s-56.59,22.13-62.13,51.39c-.73,3.83-1.11,7.79-1.11,11.84,0,1.97,.09,3.91,.27,5.83,.24,2.68,.65,5.3,1.22,7.87,6.26,28.34,31.53,49.53,61.75,49.53,26.12,0,48.55-15.84,58.18-38.45l-18.92-1.75c-7.91,13.45-22.53,22.48-39.26,22.48-19.72,0-36.5-12.53-42.83-30.06-1.11-3.07-1.89-6.29-2.32-9.62h108.11c.18-1.92,.27-3.86,.27-5.83Zm-107.19-11.84c5.21-19.4,22.92-33.67,43.96-33.67s38.74,14.27,43.95,33.67H98.22Z"/>
    </g>
  </g>
</svg>