<svg width="240" height="22" viewBox="0 0 240 22" fill="none" xmlns="http://www.w3.org/2000/svg">
<path d="M0.751741 12.5445L0.813739 12.0484C0.735895 12.0386 0.670498 11.9954 0.605503 11.8631C0.537125 11.7238 0.51295 11.5626 0.507122 11.5008L0.507069 11.5003C0.485508 11.2745 0.508469 11.0533 0.638521 10.8536C0.648109 10.8413 0.756251 10.7086 1.03947 10.6316L1.03995 10.6314C26.5931 3.65325 53.1146 1.98784 79.5564 2.4433L79.5783 2.44367L79.6002 2.44213C113.841 0.027687 148.114 0.213689 182.413 1.12943C188.893 1.3032 201.887 2.00456 213.831 2.87434C219.803 3.30919 225.508 3.78579 230.002 4.25909C232.249 4.49579 234.189 4.73121 235.707 4.9596C237.241 5.19054 238.298 5.40818 238.811 5.59895C239.142 5.72292 239.295 5.89048 239.329 5.94074L239.332 5.94614C239.423 6.07851 239.469 6.23088 239.489 6.39276C239.521 6.65948 239.487 6.90166 239.352 7.11945L239.35 7.1226C239.312 7.1861 239.205 7.32039 238.981 7.40889L238.981 7.40927C238.767 7.49426 238.336 7.59531 237.628 7.69559C236.932 7.79409 236.002 7.88736 234.815 7.96978C234.813 7.96993 234.806 7.9701 234.791 7.96154C234.772 7.95075 234.739 7.92571 234.701 7.87482C234.625 7.77093 234.556 7.59315 234.549 7.36393C234.542 7.1214 234.605 6.92211 234.683 6.80133L235.113 6.13877L234.33 6.03351C222.73 4.47385 193.322 2.71189 182.412 2.41953L182.398 2.91935L182.412 2.41952C156.44 1.72523 130.467 1.44935 104.504 2.40932L104.495 3.40819C113.698 3.9239 122.849 4.57843 131.904 5.23119L131.904 5.2312C135.857 5.5149 139.809 5.8297 143.762 6.16113L143.8 6.16429L143.838 6.16174C153.021 5.54172 162.501 5.2126 171.175 5.6778C179.857 6.14342 187.692 7.40321 193.606 9.9373C193.786 10.015 193.911 10.0971 193.993 10.1632C194.034 10.1964 194.064 10.2253 194.084 10.2473C194.094 10.2583 194.101 10.2671 194.106 10.2736C194.112 10.2802 194.114 10.2834 194.113 10.283L194.116 10.2868C194.261 10.5078 194.282 10.7465 194.257 10.981C194.245 11.0885 194.216 11.2279 194.156 11.3458C194.101 11.4548 194.031 11.5236 193.931 11.5577C193.933 11.5572 193.914 11.5623 193.865 11.5677C193.814 11.5733 193.746 11.5776 193.659 11.5797C193.486 11.5839 193.261 11.5789 192.993 11.5658C192.458 11.5397 191.782 11.483 191.064 11.4143C190.449 11.3554 189.799 11.2872 189.187 11.2231C188.388 11.1393 187.656 11.0625 187.154 11.0225C184.902 10.8412 182.631 10.6762 180.363 10.5114C178.319 10.363 176.277 10.2147 174.253 10.0547C168.308 9.58343 162.37 9.06322 156.43 8.5428C152.183 8.1707 147.935 7.7985 143.682 7.44398L143.644 7.44081L143.606 7.44343C136.454 7.93634 129.469 8.60589 123.219 9.205C119.102 9.59969 115.303 9.96381 111.986 10.2267L111.986 10.2267C103.641 10.8902 95.3091 11.672 86.9771 12.7031C84.0415 13.066 81.1072 13.4498 78.1734 13.8753L78.1589 14.8626C94.0494 17.6454 110.205 17.3218 126.313 16.9991C127.254 16.9802 128.194 16.9614 129.134 16.9432C146.194 16.6126 163.189 16.486 179.861 20.2104L179.862 20.2105C179.873 20.213 179.948 20.2417 180.024 20.3957C180.097 20.5417 180.139 20.7489 180.117 20.9741L180.117 20.9742C180.094 21.202 180.014 21.3593 179.942 21.4399C179.906 21.4789 179.879 21.4931 179.868 21.4975C179.86 21.5007 179.858 21.5002 179.854 21.4994L179.854 21.4994L179.854 21.4993C162.136 17.5414 144.079 17.9027 126.106 18.2623L125.729 18.2699C107.611 18.6322 89.5799 18.9621 71.9408 14.8941L71.9398 14.8939C71.7716 14.8554 71.6751 14.7477 71.609 14.5793C71.538 14.3985 71.5312 14.2071 71.532 14.1589C71.5344 14.0482 71.5476 13.9092 71.5927 13.7828C71.636 13.6612 71.7 13.5738 71.7962 13.5182L71.5459 13.0854M0.751741 12.5445L0.812406 12.0482C0.811887 12.0481 0.81199 12.0481 0.812781 12.0482C0.81604 12.0484 0.830968 12.0494 0.86224 12.0495C0.897859 12.0497 0.944497 12.0486 1.00263 12.0463C1.11884 12.0415 1.26872 12.0317 1.44589 12.0179C1.79971 11.9902 2.24705 11.9472 2.72156 11.8994C3.00737 11.8706 3.30363 11.8399 3.59409 11.8098C4.2601 11.7407 4.89556 11.6749 5.30431 11.642L5.30446 11.642C10.7572 11.2057 16.201 10.5831 21.6453 9.86271L21.6456 9.86267C34.0082 8.23321 46.3532 6.82363 58.733 5.54061M0.751741 12.5445C1.02848 12.5783 2.4072 12.4354 3.65388 12.3062C4.31638 12.2376 4.9416 12.1728 5.34435 12.1404C10.8082 11.7032 16.261 11.0795 21.7109 10.3584C34.0679 8.72967 46.4082 7.32061 58.7845 6.03795M0.751741 12.5445C0.138187 12.4678 0.025953 11.7239 0.00933303 11.5478C-0.0183669 11.2577 0.0052186 10.9054 0.224048 10.5739C0.261443 10.518 0.45118 10.2734 0.908229 10.1491L79.6315 4.23101C72.6844 4.72004 65.733 5.31684 58.7845 6.03795M58.733 5.54061L58.7845 6.03795M58.733 5.54061L58.7845 6.03795M58.733 5.54061C65.6874 4.81889 72.6441 4.22163 79.5964 3.73225L79.6183 3.7307L79.6403 3.73109C96.3682 4.02353 113.052 5.16421 129.411 6.34116L129.421 7.33777C127.25 7.53768 125.137 7.73869 123.099 7.93245C119.04 8.31845 115.284 8.67566 111.983 8.938L111.944 8.43974L111.983 8.938C103.633 9.60073 95.302 10.3833 86.9739 11.4141L86.9737 11.4141C82.6936 11.942 78.4218 12.5152 74.1543 13.1915C73.9229 13.2289 73.5657 13.2659 73.2142 13.3022C73.1785 13.3059 73.1428 13.3096 73.1073 13.3133C72.7069 13.3549 72.3271 13.396 72.0881 13.4387L72.0831 13.4396C71.9957 13.4543 71.9239 13.4729 71.8708 13.4901C71.8136 13.5086 71.7907 13.5213 71.7953 13.5187L71.5459 13.0854M71.5459 13.0854C71.0944 13.3464 71.0376 13.881 71.0321 14.1504L86.9125 10.9179C82.6287 11.4463 78.3504 12.0203 74.0749 12.6979C73.8587 12.7329 73.5164 12.7683 73.1585 12.8053C72.7323 12.8494 72.284 12.8958 72.0002 12.9465C71.7785 12.9838 71.6179 13.0439 71.5459 13.0854ZM179.745 21.9873C180.162 22.0806 180.552 21.6496 180.615 21.0238L71.8284 15.3813C89.6516 19.4918 107.863 19.1274 126.088 18.7628C144.08 18.4028 162.086 18.0426 179.745 21.9873ZM184.485 9.52457L184.623 8.53598C177.872 7.165 169.976 6.68585 161.761 6.717L161.72 7.71512C165.896 8.0778 170.075 8.43227 174.255 8.76395C176.347 8.93056 178.442 9.08253 180.536 9.23438C181.854 9.32996 183.17 9.42548 184.485 9.52457ZM48.0031 5.39733L47.9152 4.40143C38.0297 5.0573 28.1866 6.19282 18.4422 7.97885L18.5951 8.9667C19.611 8.83814 20.6255 8.7075 21.6413 8.57481L21.642 8.57472C30.4299 7.41485 39.2113 6.36677 48.0031 5.39733Z" fill="#FD02D6" stroke="url(#paint0_linear_51_619)"/>
<defs>
<linearGradient id="paint0_linear_51_619" x1="0" y1="11" x2="240" y2="11" gradientUnits="userSpaceOnUse">
<stop stop-color="#EC008C"/>
<stop offset="1" stop-color="#FC6767"/>
</linearGradient>
</defs>
</svg>
